<svg width="743.354" height="347.799" viewBox="0 0 196.679 92.022" xmlns="http://www.w3.org/2000/svg"><g style="display:inline"><path style="fill:#000;stroke-width:.264583" d="M7.057 101.514c-3.202-.068-3.618-.131-4.015-.608-.323-.387-.386-.73-.233-1.255.171-.587 8.232-20.773 14.975-37.5 1.014-2.515 1.554-3.527 2.01-3.766.873-.458 8.686-.46 9.308-.004.514.378 1.25 2.1 4.15 9.723 1.135 2.983 4.02 10.484 6.41 16.669 6.215 16.083 5.917 15.199 5.39 16.002l-.437.667H35.91l-.39-.755c-.215-.415-.88-1.992-1.478-3.505-.598-1.514-1.282-2.9-1.52-3.082-.324-.249-2.515-.331-8.818-.331h-8.388l-1.404 3.607c-1.28 3.291-1.48 3.639-2.269 3.969-.476.199-.899.335-.94.304s-1.682-.093-3.646-.135m34.726-2.65c.652-.584.577-1.893-.193-3.34-.361-.68-1.187-2.691-1.835-4.471a711 711 0 0 0-2.94-7.867c-.97-2.547-2.7-7.106-3.846-10.132s-2.153-5.616-2.24-5.756c-.098-.158-.359-.145-.696.035-.685.367-.696.326 1.59 6.361 2.442 6.45 2.385 6.185 1.398 6.53-.749.26-.833.22-1.334-.63-.56-.948-1.257-1.184-1.515-.512-.083.217.295 1.497.84 2.844 1.439 3.56 1.483 3.64 2.016 3.64.603 0 .635-.721.09-2.024-.544-1.303-.505-1.545.307-1.915.563-.256.768-.252 1.019.023.269.296 1.404 3.152 4.262 10.728l.624 1.651-.857.358c-1.201.502-1.644 1.14-1.613 2.321.03 1.17.66 2.272 1.499 2.625.78.328 2.85.045 3.424-.47m-3.229-1.244c-.174-.21-.278-.657-.23-.992.12-.855 1.637-1.023 2.062-.229.622 1.162-.99 2.236-1.832 1.221m-27.922 1.267c.567-.567.922-1.52.922-2.47 0-.774-.837-1.665-1.873-1.994-.28-.088-.508-.331-.508-.54 0-.803 6.063-15.595 6.422-15.67.206-.042.53.11.72.34.292.351.173.876-.752 3.329-1.2 3.183-1.315 3.883-.675 4.129.548.21.642.043 2.204-3.884 2.854-7.178 4.298-11.4 4.015-11.74-.459-.553-2.87-1.572-3.315-1.4-.732.28-.449.942.642 1.499.582.297 1.058.644 1.058.772 0 .27-1.788 4.955-2.152 5.64-.222.418-.345.386-1.354-.345-1.016-.736-1.138-.766-1.436-.358-.18.245-1.36 3.079-2.622 6.298A713 713 0 0 1 6.71 95.489c-1.04 2.516-1.064 2.69-.46 3.294.715.716 3.7.787 4.382.104m-2.87-1.061c-.287-.288-.201-1.28.141-1.623.446-.446 1.521-.395 1.704.08.084.219.078.695-.013 1.058-.128.51-.337.661-.91.661-.41 0-.825-.08-.922-.176m10.804-7.89c0-1.314-.081-1.6-.476-1.675-.816-.158-1.244.459-1.244 1.792 0 1.45.137 1.652 1.049 1.545.635-.074.67-.163.67-1.662m2.46.227c.094-1.611-.43-2.4-1.288-1.94-.406.217-.51.56-.51 1.675 0 1.609.122 1.808 1.048 1.7.609-.07.679-.204.75-1.435m2.038-.23c0-1.536-.024-1.59-.728-1.672l-.727-.083v3.509l.727-.083c.704-.081.728-.136.728-1.671m8.731.926v-.662l-3.373-.074-3.374-.074v-.936c0-.82-.074-.926-.595-.852-.51.072-.607.268-.677 1.373-.135 2.116-.29 2.042 4.11 1.96l3.91-.074zm-2.513-6.857c0-.488-3.858-10.732-4.478-11.891-.74-1.384-1.006-.918-4.233 7.427-.885 2.287-1.608 4.341-1.608 4.565 0 .35.698.406 5.16.406 4.906 0 5.159-.025 5.159-.507m-2.903-15.964c.648-.327 1.447-1 1.776-1.494 1.219-1.834.463-4.805-1.517-5.961-1.283-.75-3.668-.744-4.685.01-2.82 2.09-2.529 6.136.542 7.53 1.45.66 2.455.637 3.884-.084zm-2.786-1.513c-1.61-.64-2.06-2.822-.805-3.902 1.04-.894 2.304-.81 3.163.21.388.462.685 1.143.685 1.573 0 1.42-1.745 2.634-3.043 2.119m113.746 34.803c-4.506-1.02-9.402-4.218-12.219-7.98-7.617-10.17-5.279-24.56 5.112-31.457 3.319-2.204 6.517-3.245 10.709-3.488 8.84-.512 17.071 4.486 20.914 12.697 1.964 4.197 2.39 9.302 1.175 14.088-1.919 7.565-6.915 12.954-14.339 15.468-2.349.795-2.936.886-6.168.958-2.357.052-4.12-.045-5.184-.286m9.27-2.263c4.155-1.063 9.076-4.37 11.29-7.59 2.02-2.934 3.48-6.89 3.818-10.345.53-5.41-2.458-12.31-6.955-16.06-4.63-3.864-11.004-5.467-16.869-4.243-2.272.474-6.098 2.345-8.124 3.972-2.759 2.216-5.465 6.469-6.48 10.185-.672 2.46-.604 7.363.142 10.13 1.048 3.89 3.606 7.915 6.525 10.264 1.787 1.438 5.088 3.089 7.378 3.69 2.61.683 6.593.682 9.274-.004zm-6.533-1.1c-6.03-.618-11.448-4.426-13.96-9.813-1.32-2.831-1.706-4.744-1.698-8.406.006-2.87.1-3.587.715-5.424 4.342-12.98 20.231-16.605 29.958-6.834 1.945 1.955 3.363 4.305 4.281 7.099.586 1.78.697 2.599.703 5.159.015 6.26-2.296 10.912-7.305 14.706-3.723 2.82-7.973 3.996-12.694 3.512m7.538-1.345a19.2 19.2 0 0 0 6.109-3.689c1.292-1.166 1.343-1.26.919-1.696-.427-.44-.505-.413-1.537.52-1.702 1.537-3.745 2.735-5.997 3.515-1.77.614-2.494.717-4.982.713-2.52-.004-3.176-.103-4.894-.738-3.622-1.34-5.707-2.796-7.593-5.306-1.182-1.572-1.977-2.953-2.296-3.988-.147-.476-.053-.543.76-.543 1.116 0 1.57-.388 1.332-1.137-.233-.735-.812-.703-1.603.088-.355.355-.694.563-.753.463s-.247-1.074-.415-2.165c-.337-2.19-.496-2.485-1.197-2.216-.414.158-.457.41-.328 1.926.394 4.662 3.519 9.797 7.535 12.38 3.266 2.102 5.7 2.743 9.982 2.626 2.604-.07 3.495-.206 4.958-.753m-7.207-2.042c0-.336-.44-.58-1.654-.916-.91-.253-2.463-.895-3.452-1.429-1.519-.82-1.836-.909-2.046-.577-.393.62-.324.741.85 1.482 1.38.871 2.499 1.342 4.263 1.795 1.548.398 2.039.312 2.039-.355m6.702-4.069c2.448-1.21 4.112-2.964 5.442-5.736.896-1.868.951-2.132.928-4.498-.028-2.994-.621-4.793-2.311-7.015-2.458-3.23-5.801-4.787-9.83-4.575-1.786.094-2.522.272-3.883.942-4.252 2.094-6.573 5.818-6.573 10.548 0 3.365 1.237 6.143 3.781 8.488 2.322 2.14 4.763 3.007 8.167 2.9 2.033-.063 2.516-.182 4.279-1.054m-18.498-7.22c.346-.132.418-.66.418-3.06v-2.9l-.727.084-.728.084-.075 2.977c-.078 3.12-.026 3.252 1.112 2.816m30.79-3.81c.092-2.991-.631-5.7-2.251-8.431-1.382-2.33-4.553-5.255-7.015-6.472-2.134-1.054-2.715-1.171-2.938-.592-.182.475.163.76 2.105 1.735 5.198 2.613 8.567 7.804 8.684 13.378.054 2.574.215 3.107.9 2.976.365-.07.451-.506.515-2.594m-2.193-.448c0-2.506-.25-3.204-1.04-2.9-.337.129-.416.631-.416 2.637 0 1.362.085 2.562.188 2.665s.43.153.728.11c.499-.071.54-.262.54-2.512m-31.354-1.005a.4.4 0 0 0-.396-.397.4.4 0 0 0-.397.397c0 .219.178.397.397.397a.4.4 0 0 0 .396-.397m1.308-3.05c1.244-4.033 4.156-7.526 7.9-9.473 1.54-.802 2.105-1.228 1.998-1.507-.326-.849-2.299-.189-5.077 1.698-2.781 1.889-5.102 5.108-6.266 8.691-.517 1.591-.382 2.261.432 2.138.425-.064.672-.44 1.013-1.547m16.728-8.915c.743-.743.88-1.972.298-2.69-.69-.85-2.635-1.07-3.438-.387-.939.799-.907 2.2.073 3.18.565.564.844.654 1.638.525.526-.085 1.17-.368 1.43-.628m-2.33-1c-.25-.65.11-1.19.794-1.19.737 0 1.115.69.67 1.224-.4.483-1.273.463-1.463-.033m38.66 36.402c-3.048-.49-6.428-1.812-10.22-3.999-2.34-1.35-3.135-2.034-3.135-2.7 0-.662 2.296-6.018 2.835-6.614.595-.658 1.033-.59 2.986.467 4.48 2.424 7.31 3.3 10.66 3.3 2.721 0 4.039-.412 5.275-1.647.849-.85.998-1.171.998-2.15 0-1.346-.786-2.685-1.985-3.383-1.003-.585-3.65-1.018-6.235-1.02-2.85-.003-4.86-.43-7.04-1.498-7.217-3.532-9.197-13.253-3.897-19.123 5.378-5.956 15.624-6.692 25.64-1.842 1.485.72 1.866 1.028 1.926 1.559.042.363-.502 2.09-1.208 3.836-1.482 3.669-2.033 4.227-3.553 3.604-.478-.197-2.06-.783-3.516-1.304-6.02-2.152-12.567-1.049-12.567 2.119 0 2.126 1.783 3.105 5.688 3.122 5.112.022 9.41 1.465 12.28 4.121 2.972 2.753 4.257 5.618 4.257 9.5 0 7.753-6.247 13.464-15.057 13.769-1.542.053-3.4 0-4.132-.117m6.698-2.292c2.957-.606 5.19-1.76 7.085-3.66 3.446-3.455 4.303-7.955 2.345-12.318-1.425-3.174-6.83-6.926-7.202-4.998-.055.284.413.707 1.39 1.259 3.038 1.714 4.71 3.929 5.182 6.866.907 5.629-3.377 10.608-9.87 11.47-2.29.305-2.314.317-2.314 1.054 0 .905.387.942 3.384.327m-8.528-.93c.28-.451-.382-.903-2.461-1.682-1.817-.68-2.631-1.204-1.87-1.201.19 0 1.06.295 1.934.655s1.923.657 2.334.66c.618.005.731-.093.661-.573-.064-.439-.372-.654-1.275-.888-.655-.17-1.619-.49-2.142-.713-.835-.355-.937-.498-.837-1.177.103-.703-.033-.863-1.5-1.77-.888-.547-1.821-.957-2.074-.91s-.8.768-1.218 1.603c-.72 1.44-.737 1.554-.332 2.172.495.755 7.004 4.114 7.973 4.114.345 0 .708-.13.807-.29m-6.961-4.113c-.482-.202-.405-1.405.102-1.6.628-.241 1.287.274 1.287 1.005 0 .635-.639.909-1.389.595m15.579 2.964c2.403-.51 4.108-1.433 5.611-3.04 1.872-2.001 2.67-3.91 2.666-6.368-.003-1.437-.154-2.313-.55-3.175-.792-1.731-2.497-3.517-4.194-4.394-1.437-.743-1.492-.751-1.855-.264-.48.646-.404.745 1.297 1.706 5.984 3.377 4.702 11.684-2.129 13.794-.951.294-2.125.535-2.607.535-1.28 0-1.713.241-1.713.954 0 .539.128.632.86.629.472-.003 1.649-.172 2.614-.377m1.908-2.653c3.378-1.598 5.113-5.266 4.096-8.659-.407-1.36-1.99-3.133-3.514-3.937-1.052-.555-1.251-.588-1.47-.245-.446.7-.284 1.036.756 1.567 1.366.697 2.6 2.153 2.962 3.497.545 2.027-.468 4.586-2.324 5.867-1.065.736-3.615 1.505-4.99 1.505-.847 0-1.341.555-.994 1.117.316.51 3.87.048 5.478-.712m-5.687-13.075c.196-.124.314-.45.262-.724-.082-.427-.429-.52-2.474-.66-2.802-.193-3.544-.364-5.214-1.198-2.785-1.392-4.452-4-4.648-7.272-.191-3.188.936-5.632 3.411-7.395 1.365-.971 1.172-.32-.296 1-1.85 1.663-2.637 3.352-2.64 5.668-.008 5.283 4.163 8.898 9.974 8.645 1.72-.075 1.797-.107 1.797-.74 0-.652-.038-.664-2.645-.804-2.003-.107-2.911-.281-3.735-.715-2.858-1.503-3.923-3.17-3.932-6.154-.005-1.695.1-2.165.721-3.222.769-1.308 1.869-2.334 2.5-2.334.21 0-.198.565-.903 1.256-3.215 3.15-2.294 7.989 1.9 9.972 1.803.854 2.591.89 2.475.118q-.085-.561-1.143-.966c-2.575-.986-3.713-2.597-3.515-4.977.164-1.978 1.111-3.315 2.973-4.195.807-.382 1.468-.796 1.468-.92 0-.43-.693-.794-1.24-.651-.856.224-.975-.355-.154-.748.831-.397 1.179-1.535.469-1.535-.238 0-.676.13-.973.289-.37.197-.626.203-.812.017-.185-.185.222-.423 1.286-.752 2.946-.91 10.618-.475 12.536.71.827.511-.023.522-1.883.024-1.074-.287-2.638-.603-3.474-.7-1.494-.175-1.522-.166-1.522.482 0 .626.132.685 2.46 1.104 3.157.568 3.736.855 3.748 1.86.01.705.163.838 1.646 1.42.9.354 1.83.569 2.064.479.564-.217 1.536-2.445 1.567-3.59.024-.883-.03-.93-1.989-1.78-2.735-1.187-4.597-1.649-8.087-2.008-3.596-.37-6.78.084-9.492 1.354-2.168 1.014-4.396 3.2-5.354 5.253-.616 1.32-.713 1.868-.715 4.045-.002 2.313.068 2.663.862 4.276 1.11 2.255 3.417 4.448 5.501 5.227 2.423.907 6.388 1.368 7.22.841m8.959-15.806c-.319-.319-.207-1.077.21-1.422.53-.44 1.247.129 1.136.903-.078.547-.973.892-1.346.519m-3.523.276c.088-.23.16-.516.16-.635 0-.257-2.94-.799-4.34-.799-.872 0-.978.07-.904.593.075.52.323.627 2.07.886 2.814.418 2.836.418 3.014-.045m-140.29 35.264c-.194-.234-.343-6.927-.47-21.124l-.187-20.781.571-.571c.538-.538.821-.572 4.776-.572 3.614 0 4.283.065 4.765.463.558.461.56.525.624 16.338l.064 15.875 8.18.07c5.496.047 8.295.166 8.533.363.48.399.512 9.488.035 9.965-.48.48-26.49.456-26.89-.026m13.133-3.426.08-1.522h-2.144v1.411c0 1.654.111 1.815 1.181 1.71.782-.076.806-.119.883-1.6m2.91 1.336c.336-.336.427-1.737.157-2.44q-.16-.418-1.162-.418c-1.305 0-1.68.88-1.065 2.497.193.507.447.678 1.005.678.411 0 .89-.143 1.065-.317m3.175-1.336.08-1.522h-2.408v1.411c0 .776.085 1.496.189 1.6s.61.154 1.124.11l.936-.078zm2.91 1.336c.175-.175.318-.876.318-1.56 0-1.093-.076-1.26-.643-1.402-.354-.089-.965-.039-1.358.11-.671.256-.705.346-.55 1.478.091.663.233 1.315.316 1.449.216.35 1.544.298 1.918-.075m3.096-1.403v-1.587h-2.116l-.082 1.43c-.091 1.607.153 1.923 1.405 1.814.786-.068.793-.084.793-1.657m-16.251-.112c1.01-1.01 1.062-2.4.124-3.34-.832-.83-2.507-.886-3.585-.119-.742.528-1.505.483-1.913-.113-.107-.157-.197-2.033-.199-4.171l-.004-3.887.992-.082.992-.082.133-1.455c.073-.8.095-3.569.049-6.152l-.083-4.696h-3.706l.084.728c.072.625.218.738 1.038.807l.954.08.169 2.169c.093 1.193.17 3.27.17 4.617l.002 2.447h-2.117V95.62h1.165c1.071 0 1.188.068 1.458.843.481 1.379 1.03 1.803 2.333 1.803.94 0 1.322-.152 1.944-.774m-2.656-.933c-.68-.82.355-1.982 1.408-1.578.566.217.578 1.586.015 1.801-.664.255-1.08.19-1.423-.223m6.817-2.196c-.074-1.158-.139-1.263-.824-1.342-1.037-.119-1.506.37-1.506 1.573v1.026h2.411zm3.227.353c0-1.47-.21-1.742-1.351-1.742h-1.03v2.646h1.19c1.179 0 1.19-.009 1.19-.904m2.859-.353-.081-1.257h-2.117l-.08 1.257-.081 1.257h2.44zm3.182.503a4 4 0 0 0-.075-1.272c-.145-.579-.284-.64-1.279-.568-1.053.076-1.12.13-1.2.966-.137 1.426.07 1.669 1.339 1.577.953-.069 1.14-.177 1.215-.703m2.903-.503-.08-1.257h-2.117l-.081 1.257-.08 1.257h2.439zM56.207 75.832l-.07-6.802h-5.821v.662c0 .646.051.663 2.183.738l2.183.077v6.022c0 6.316.101 6.904 1.103 6.368.464-.249.489-.66.422-7.065m.062-10.373v-.794h-3.05c-3.172 0-3.6.159-3.204 1.19.123.321.735.397 3.203.397h3.051zm0-2.117v-.794h-3.05c-3.172 0-3.6.16-3.204 1.19.123.322.735.398 3.203.398h3.051zm-.049-2.183.084-.728h-3.068c-3.196 0-3.618.158-3.218 1.2.13.337.656.393 3.137.33l2.982-.074zm37.144 39.988c-1.86-.31-5.723-1.777-7.64-2.902-2.443-1.434-5.841-5.012-7.152-7.532-1.77-3.403-2.51-6.29-2.536-9.909-.024-3.412.301-5.278 1.442-8.257 2.029-5.295 6.444-9.833 11.762-12.087 6.181-2.62 13.13-2.33 19.176.799 2.194 1.136 5.13 3.422 6.045 4.706.976 1.37.692 2-1.957 4.337-3.363 2.966-3.547 3-5.832 1.052-5.28-4.502-14.65-3.668-18.721 1.666-1.71 2.24-2.18 3.779-2.18 7.123 0 2.707.056 3.03.819 4.63 2.301 4.83 7.308 7.472 12.693 6.696 2.323-.335 5.084-1.608 6.096-2.81.877-1.043 1.748-2.784 1.552-3.101-.092-.15-2.213-.256-5.116-.256-3.504 0-5.052-.093-5.276-.317-.44-.44-.44-6.6 0-7.038.455-.455 19.282-.455 19.738 0 .237.237.317 3.185.317 11.632 0 10.916-.018 11.325-.512 11.589-.66.353-7.039.358-7.696.006-.275-.147-.578-.683-.674-1.19-.095-.508-.216-.923-.269-.923-.052 0-.973.348-2.045.774-3.71 1.474-8.15 1.958-12.034 1.312m7.813-2.24c2.454-.507 4.953-1.479 6.024-2.344.709-.573.751-.685.396-1.048-.357-.365-.56-.33-1.984.342-3.326 1.57-4.193 1.748-8.466 1.748-3.453 0-4.197-.079-5.727-.607-3.51-1.213-6.643-3.537-8.68-6.438-2.674-3.807-3.864-8.34-3.239-12.338.176-1.126.39-2.358.474-2.738.172-.772-.5-1.25-1.082-.767-.904.75-1.236 6.997-.53 9.988.52 2.21 1.715 4.784 3.157 6.806 4.237 5.937 12.205 8.936 19.657 7.396m1.262-2.347c1.85-.584 4.154-1.778 4.478-2.32.195-.327.178-.551-.061-.79-.269-.269-.59-.19-1.643.402-2.261 1.271-4.195 1.823-7.008 2-2.459.154-2.651.207-2.728.744-.07.497.06.59.926.662 1.512.124 4.541-.226 6.036-.698m-7.938-.277c0-.417-.362-.645-1.72-1.083-5.697-1.837-9.672-6.007-10.969-11.509-.46-1.955-.517-5.132-.122-6.848.235-1.02.209-1.23-.19-1.523-.66-.481-.85-.168-1.336 2.198-.757 3.685.199 8.433 2.377 11.805 1.126 1.743 4.125 4.636 5.845 5.638 3.065 1.785 6.115 2.445 6.115 1.322m1.588-1.83c0-.405-.316-.571-1.588-.837-3.246-.677-6.062-2.436-7.976-4.981-2.6-3.46-3.515-6.678-2.96-10.412.242-1.63.23-2.013-.074-2.205-.202-.128-.486-.195-.631-.15-.491.151-.896 1.881-.911 3.889-.042 5.556 3.23 11.13 8.005 13.64 2.39 1.256 3.74 1.686 5.077 1.617.846-.043 1.058-.156 1.058-.56m16.21.153c.26-.164.32-1.656.265-6.544l-.07-6.332h-10.055l-.084.728-.083.728h8.766v5.309c0 5.866.19 6.79 1.262 6.111m2.442-2.655c0-1.256-.079-4.518-.174-7.249l-.174-4.966-6.11.071c-5.909.069-6.109.089-6.109.6 0 .508.22.535 5.424.662l5.424.132.069 6.483c.06 5.68.123 6.522.507 6.808.835.62 1.144-.066 1.143-2.541M88.35 68.604c.945-1.003.93-1.925-.046-2.901-.986-.986-2.072-1.016-3.175-.089-1.382 1.163-.96 3.28.773 3.884.72.252 1.71-.11 2.448-.894m-2.395-.553c-.664-.664-.17-1.799.785-1.799.257 0 .593.236.747.523.222.416.17.634-.256 1.059-.618.619-.837.656-1.276.217m25.149.569c.4-.434.728-.971.728-1.194 0-.647-.753-1.927-1.309-2.224-.705-.378-1.905-.326-2.475.105-.417.317-.656.253-1.924-.51-2.067-1.245-4.702-1.85-8.05-1.851-3.458-.001-4.299.2-4.185 1 .064.452.235.57.745.511.363-.042 1.911-.098 3.44-.125 2.212-.04 3.154.068 4.63.528 2.583.804 4.242 1.904 4.452 2.949.204 1.022 1.584 1.964 2.559 1.747.364-.081.989-.502 1.389-.936m-2.583-1.056c-.228-.719.155-1.118.965-1.003.467.066.626.255.626.75 0 .91-1.316 1.12-1.591.253m-3.849-.753c.223-.417.147-.547-.454-.782-2.267-.888-3.877-1.143-6.676-1.057-3.013.094-3.817.371-3.206 1.108.248.3.882.353 3.018.257 2.16-.097 3.077-.017 4.556.4 2.372.667 2.443.67 2.762.074m1.892-3.365c.476-.575-.135-1.011-2.402-1.714-2.666-.827-5.469-1.095-8.067-.772-2.71.337-3.1.47-2.993 1.022.071.37.654.428 4.445.44 4.05.014 4.496.065 6.215.712 2.228.84 2.352.853 2.802.312m4.694-10.675c-3.575-.657-7.263-2.326-10.292-4.656-3.274-2.52-5.912-6.547-7.277-11.112-.964-3.226-1.022-7.404-.148-10.703 1.668-6.292 5.669-11.149 11.544-14.012 3.678-1.793 5.593-2.231 9.79-2.244 2.801-.01 3.821.1 5.5.584 4.025 1.162 7.3 3.173 10.172 6.245 1.98 2.119 2.574 3.147 2.21 3.827-.357.668-5.878 4.277-6.542 4.277-.299 0-1.228-.6-2.066-1.333-7.645-6.69-18.855-3.603-20.94 5.764-.355 1.599-.388 2.304-.167 3.636.948 5.718 5.96 9.925 11.828 9.925 3.576 0 6.427-1.269 9.124-4.06.796-.823 1.667-1.496 1.937-1.496.945 0 7.067 4.549 7.067 5.251 0 .748-1.389 2.708-2.97 4.192-2.707 2.54-6.288 4.519-9.994 5.519-1.752.473-7.057.712-8.776.396m6.394-2.147c3.84-.622 9.525-3.29 9.525-4.47 0-.873-.78-.826-2.197.13-1.654 1.116-4.73 2.337-7.013 2.784-3.845.752-9.12-.21-12.744-2.322-4.165-2.429-7.608-7.353-8.51-12.17-.405-2.167-.136-6.189.56-8.379.472-1.484.514-1.864.227-2.046-.705-.447-.95-.2-1.517 1.526-1.671 5.09-1.218 9.839 1.416 14.852 3.767 7.169 12.242 11.393 20.253 10.095m2.38-2.64c2.765-.92 5.822-2.652 5.822-3.298 0-.181-.18-.479-.4-.662-.332-.275-.654-.163-1.884.653-.816.542-2.273 1.298-3.237 1.68-1.581.625-2.108.694-5.326.703-3.242.01-3.764-.058-5.643-.723-4.807-1.7-8.295-5.137-10.016-9.868-.872-2.4-.977-6.401-.232-8.855.446-1.469.504-1.97.262-2.262-.575-.693-.999-.384-1.574 1.147-1.31 3.487-.9 8.585.995 12.369 2.563 5.12 6.921 8.41 12.788 9.652 1.916.406 6.485.116 8.445-.536m-16.54-24.616c.981-1.29 1.163-1.684.913-1.984-.493-.595-.922-.447-1.736.6-1.312 1.686-1.434 2.007-.963 2.53.23.255.45.463.49.463s.623-.724 1.297-1.609m-1.874-.882c2.402-3.487 6.048-5.906 10.015-6.644.897-.166.992-.13.992.387 0 .852 1.152 1.87 2.117 1.87 1.147 0 2.117-1.026 2.117-2.238 0-1.205-.766-1.996-1.931-1.996-1.22 0-5.456.953-7.077 1.592-2.801 1.104-5.736 3.497-7.514 6.125l-.954 1.41.565.464c.31.255.592.463.624.463s.503-.645 1.046-1.433M114.28 16.6c-.464-.187-.414-1.324.066-1.508.64-.245 1.19.105 1.19.757 0 .466-.57 1.051-.88.905a19 19 0 0 0-.376-.154m-14.545 4.831c.405-.64 1.619-2.002 2.698-3.027 2.601-2.471 5.26-3.772 9.357-4.579l3-.59 3.01.554c3.012.555 6.298 1.803 7.11 2.7.357.395.318.513-.387 1.179-.431.407-.784.974-.784 1.26 0 1.461 1.688 2.933 3.062 2.67.925-.176 2.23-1.475 2.228-2.217-.004-2.34-4.783-5.628-9.992-6.876-6.05-1.448-12.952.458-17.695 4.887-2.416 2.256-3.917 4.344-3.491 4.857.523.63 1.139.362 1.884-.818m26.054-1.502c-.576-.336-.598-1.124-.044-1.585.825-.684 1.859.643 1.158 1.487-.373.449-.493.46-1.114.098m11.708 32.565c-.52-.52-.529-.882-.529-21.29 0-20.254.012-20.767.512-21.034.334-.179 5.335-.274 14.41-.274 13.47 0 13.907.016 14.173.512.155.29.274 2.287.274 4.598 0 3.476-.065 4.14-.437 4.449-.346.287-2.413.39-9.856.495l-9.419.132v2.965c0 1.855.112 3.075.3 3.263.21.21 2.515.29 7.711.268 6.48-.028 7.465.022 7.836.393.402.402.597 3.144.524 7.373-.03 1.74-.062 1.746-8.468 1.746-5.691 0-7.525.079-7.685.33-.327.515-.087 6.383.27 6.611.169.107 4.365.196 9.327.198 8.4.004 9.051.038 9.459.488.368.407.438 1.14.438 4.578 0 2.83-.098 4.191-.318 4.41-.239.24-3.745.318-14.155.318-13.485 0-13.851-.013-14.367-.53m26.675-2.315.085-.595h-5.427c-5.445 0-5.95.084-5.62.944.126.329.988.378 5.514.318 5.336-.071 5.364-.075 5.448-.667m-20.57-.31c.558-.557.774-1.03.774-1.69 0-1.125.392-1.266 2.924-1.054 1.71.143 1.815.19 1.891.842l.08.69 3.486.074c3.342.07 3.492.051 3.662-.483.097-.306.096-.637-.001-.735-.098-.098-1.452-.218-3.009-.266-2.812-.088-2.833-.093-3.273-.86l-.443-.772h-4.475c-4.05 0-4.537.05-5.137.52-.846.666-1.098 1.9-.62 3.041.452 1.084 1.04 1.447 2.356 1.458.773.006 1.196-.175 1.786-.766m-2.66-1.206c-.268-.322-.28-.568-.05-1.072.537-1.179 2.037-.595 1.851.721-.106.75-1.28.98-1.802.351m23.225-.564c.066-.462-.094-.587-.926-.725-3.045-.503-5.155-.047-4.744 1.025.13.34.619.397 2.874.334 2.535-.07 2.722-.113 2.796-.634m.005-2.021c-.084-.593-.107-.596-5.574-.667-5.195-.068-5.49-.045-5.49.419 0 .27.08.57.176.667.097.097 2.606.176 5.575.176h5.398zm-23.368-5.755v-2.249l1.72-.132c1.5-.115 1.72-.2 1.72-.662 0-.454-.225-.55-1.587-.675-.874-.08-1.945-.076-2.382.01l-.793.157-.077 2.617c-.088 3.04-.004 3.382.803 3.268.565-.08.596-.202.596-2.334m19.644-7.227c.653-.653.75-2.843.159-3.574-.751-.928-2.54-1.086-3.578-.318-.794.587-.91.595-6.796.484-5.592-.106-6.05-.151-6.915-.691-.51-.318-1.318-.579-1.798-.58-2.018-.002-2.908 2.522-1.486 4.213 1.243 1.477 3.63.966 4.352-.931l.242-.636h5.695c4.804 0 5.695.06 5.695.384 0 .69.577 1.672 1.155 1.967.755.385 2.767.19 3.275-.318m-19.404-1.638c-.35-.534-.37-.74-.106-1.058.737-.889 2.275-.142 1.908.927-.332.965-1.214 1.03-1.802.131m16.75.499c-.37-.37-.18-1.41.304-1.668.696-.373 1.436.219 1.319 1.053-.066.465-.28.669-.763.725-.37.043-.756-.006-.86-.11m-3.216.825c.509-.392.509-.4 0-.793-.394-.305-1.292-.397-3.88-.397-1.853 0-3.556.072-3.786.16-.422.162-.57.924-.243 1.251.097.097 1.801.176 3.786.176 2.804 0 3.724-.088 4.123-.397m-10.52-7.328c.44-.44.425-4.727-.017-5.333-.282-.385-.698-.446-2.58-.38-2.042.07-2.244.125-2.244.606 0 .47.202.538 1.786.607l1.786.079v2.215c0 2.08.104 2.401.807 2.502.08.012.288-.122.463-.296m12.225-8.679c0-.777-.029-.794-1.332-.794-1.373 0-1.806.349-1.483 1.191.107.28.544.397 1.483.397 1.303 0 1.332-.017 1.332-.794m7.89.066c.082-.584.033-.595-2.647-.599-1.501-.002-2.87-.093-3.04-.202-.172-.109-.35-.672-.398-1.253l-.086-1.055-6.688-.07-6.689-.07-.72-.8c-1.369-1.518-3.73-1.29-4.45.432-1.14 2.73 1.95 4.75 4.22 2.757l.904-.793h6.088c5.168 0 6.111.06 6.24.397a1.28 1.28 0 0 1 0 .793c-.083.219-.082.58.003.802.131.34.714.393 3.667.33 3.414-.071 3.513-.09 3.595-.669m-23.242-1.928c-.344-.643-.133-1.468.432-1.684.622-.239 1.426.32 1.426.99 0 1.198-1.323 1.693-1.858.694m23.246-.09c.138-.721-.405-.95-2.272-.954-2.298-.006-2.081-.493.262-.588 1.575-.064 1.93-.16 2.003-.54.136-.713-.998-.993-4.002-.989-2.886.004-3.463.17-3.314.954.069.362.364.52 1.084.58.964.08.99.11.99 1.134v1.051l2.577-.075c2.278-.067 2.588-.134 2.672-.573M49.407 52.436c-.738-.388-1.234-1.558-6.887-16.214-4.432-11.492-7.923-20.785-8.733-23.244-1.02-3.095-.642-3.347 5.034-3.347 2.606 0 3.476.089 3.771.384.39.39 5.54 13.206 8.884 22.106a1310 1310 0 0 0 2.146 5.689l.308.793.345-.661c.19-.364 2.208-5.365 4.485-11.113 5.55-14.01 6.542-16.403 6.971-16.832.28-.28 1.33-.366 4.448-.366 3.772 0 4.123.042 4.628.547.703.703.631 1.018-1.465 6.417L69.11 27.49c-2.075 5.339-7.002 17.464-9.355 23.019-.96 2.265-.572 2.108-5.385 2.19-3.123.054-4.497-.019-4.963-.264m6.765-2.345c1.136-.702 2.06-2.61 1.838-3.794-.23-1.228-1.169-2.517-2.27-3.119-1.87-1.022-4.48-.178-5.391 1.744-1.818 3.83 2.207 7.404 5.823 5.169m-3.852-1.998c-.71-.903-.695-1.755.046-2.586.918-1.027 1.812-1.117 2.803-.284 1.631 1.373.855 3.567-1.262 3.567-.807 0-1.161-.156-1.587-.697m-.109-6.331c.208-.543-1.985-6.129-2.481-6.319-.21-.08-1.075-.147-1.92-.147h-1.536l-1.307-2.977c-1.277-2.906-1.976-3.713-2.358-2.72-.175.458 2.076 6.046 2.743 6.81.272.311.892.475 2.002.529l1.609.078.619 1.587c1.224 3.142 1.462 3.572 1.973 3.572.274 0 .569-.186.656-.413m5.456-2.289 1.035-2.569 2.137-.076 2.138-.077 1.374-3.307a385 385 0 0 0 2.713-6.747c2.334-6 3.71-9.477 4.399-11.112.84-1.996.846-2.637.032-3.452-.496-.496-.93-.65-1.83-.65-1.556 0-1.962.18-2.426 1.078-.627 1.213-.494 2.425.355 3.239.409.39.944.71 1.191.71s.449.131.449.291-.84 2.385-1.868 4.945a543 543 0 0 0-3.077 7.846c-1.461 3.855-2.362 5.697-2.799 5.725a47 47 0 0 1-1.988-.019l-1.662-.039-.754 1.672c-1.703 3.774-1.986 5.406-.9 5.197.289-.055.814-.997 1.481-2.655m11.2-24.627a1.02 1.02 0 0 1-.386-.967c.117-.793 1.061-1.162 1.719-.673.448.334.455.425.092 1.086-.486.883-.805 1.007-1.425.554M46.03 29.026c-.029-.274-.652-1.783-1.385-3.351-1.223-2.62-1.38-2.837-1.93-2.668-.33.101-.645.224-.7.273s.382 1.195.97 2.547a248 248 0 0 1 1.489 3.482c.404.987.44 1.01 1.014.62.328-.222.572-.628.542-.903m1.355-.24c.23-.089.412-.297.405-.464-.008-.166-.816-2.207-1.797-4.535l-1.782-4.234-2.084-.132-2.084-.132-.333-.926c-.502-1.395-.446-1.777.285-1.96 1.613-.405 1.947-3.109.534-4.324-1.01-.869-2.836-.828-3.747.084-.856.856-.803 1.14 1.014 5.406l1.409 3.307 2.07.133 2.072.132.738 1.852c.935 2.346 2.61 5.953 2.764 5.953.065 0 .306-.072.536-.16M38.33 14.87c-.174-.174-.317-.658-.317-1.075 0-.695.07-.75.86-.675.666.065.88.22.946.693.153 1.078-.795 1.75-1.489 1.057M65 26.102c2.345-5.998 2.366-6.062 2.048-6.38-.719-.718-1.204-.311-1.93 1.617a285 285 0 0 1-1.61 4.153c-.989 2.485-1.025 2.683-.571 3.137.65.65.977.248 2.062-2.527m-1.49-2.206c1.498-3.912 1.645-4.74.844-4.74-.503 0-.843.676-2.379 4.73-1.26 3.327-1.34 4.002-.477 4.002.38 0 .813-.86 2.013-3.992M79.17 52.17c-.364-.52-.411-2.967-.411-21.147 0-18.338.045-20.605.415-20.976.343-.343 1.148-.416 4.59-.416 3.707 0 4.222.055 4.61.484.4.442.439 2.291.439 21.148 0 18.433-.045 20.709-.416 21.08-.343.343-1.15.416-4.615.416-4.04 0-4.215-.023-4.611-.588m6.43-2.084c.49-.17.893-.525.975-.86.078-.313.107-2.295.065-4.405-.074-3.732-.092-3.839-.662-3.92-.745-.106-1.003.78-.76 2.611.143 1.076.101 1.309-.233 1.309-.35 0-.406-.684-.406-5.02v-5.02l.778-.403c1.339-.692 1.604-1.339 1.604-3.914v-2.332l-1.183-.718-1.182-.717-.008-3.48-.009-3.479.918.026c.505.014 1-.056 1.1-.156.2-.2.143-6.645-.065-7.185-.386-1.007-3.816-1.311-4.9-.434-.6.485-.624.646-.624 4.005 0 3.067.058 3.536.47 3.794.682.427.976-.182.98-2.036.003-.957.105-1.475.27-1.374.161.1.264 2.158.264 5.29 0 4.747-.036 5.137-.487 5.28-.268.085-.774.46-1.125.834-.569.606-.637.915-.633 2.888.003 1.964.074 2.285.637 2.884.348.371.853.744 1.12.83.452.143.488.533.488 5.295 0 3.095-.1 5.142-.253 5.142-.14 0-.288-.863-.33-1.918-.072-1.75-.13-1.926-.665-2.002-.822-.117-.952.625-.824 4.705.088 2.83.188 3.504.587 3.945.696.769 2.68 1.028 4.093.535m-2.93-1.978c-.458-1.005 0-1.567 1.277-1.567.932 0 1.037.07 1.115.743.11.968-.359 1.506-1.314 1.506-.568 0-.848-.178-1.078-.682m.225-15.477c-.586-.461-.697-.758-.697-1.864 0-1.046.134-1.45.654-1.97.608-.607.713-.628 1.521-.3.84.342.87.409.948 2.054.07 1.48.006 1.761-.492 2.165-.74.599-1.083.584-1.934-.085m1.684-15.084c0-1.379.626-1.287.744.109.063.739-.017.971-.33.971-.307 0-.414-.278-.414-1.08m-1.745-3.292c-.118-.47-.041-.834.234-1.108.274-.275.638-.352 1.108-.233.6.15.689.296.618 1.026-.072.744-.19.861-.933.933-.73.07-.876-.017-1.027-.618" transform="translate(-2.73 -9.631)"/></g></svg>