<?xml version="1.0" encoding="UTF-8" standalone="no"?>
<!-- Created with Inkscape (http://www.inkscape.org/) -->

<svg
   width="355.49881mm"
   height="43.694317mm"
   viewBox="0 0 355.49881 43.694317"
   version="1.1"
   id="svg5"
   xmlns="http://www.w3.org/2000/svg"
   xmlns:svg="http://www.w3.org/2000/svg">
  <defs
     id="defs2" />
  <g
     id="layer1"
     style="display:inline"
     transform="translate(75.436217,-42.366336)">
    <path
       style="fill:#000000;stroke-width:0.264582"
       d="m 87.709945,85.921251 c -3.20199,-0.068 -3.61799,-0.131 -4.01499,-0.608 -0.323,-0.387 -0.386,-0.73 -0.233,-1.255 0.171,-0.587 8.23198,-20.77296 14.97497,-37.49993 1.014,-2.51499 1.554,-3.52699 2.009985,-3.76599 0.873,-0.458 8.686,-0.46 9.308,-0.004 0.514,0.378 1.24999,2.1 4.14999,9.72298 1.135,2.983 4.01999,10.48398 6.40999,16.66897 6.21498,16.08297 5.91698,15.19897 5.38999,16.00197 l -0.437,0.667 h -8.70499 l -0.39,-0.755 c -0.215,-0.415 -0.87999,-1.992 -1.47799,-3.50499 -0.598,-1.514 -1.282,-2.9 -1.52,-3.082 -0.324,-0.249 -2.515,-0.331 -8.81799,-0.331 h -8.387985 l -1.40399,3.607 c -1.28,3.29099 -1.48,3.63899 -2.269,3.96899 -0.476,0.199 -0.899,0.335 -0.94,0.304 -0.041,-0.031 -1.68199,-0.093 -3.64599,-0.135 m 34.725935,-2.65 c 0.652,-0.584 0.577,-1.89299 -0.193,-3.33999 -0.361,-0.68 -1.187,-2.69099 -1.83499,-4.47099 -0.96451,-2.628095 -1.94452,-5.250471 -2.94,-7.86699 -0.97,-2.54699 -2.69999,-7.10598 -3.84599,-10.13198 -1.146,-3.02599 -2.153,-5.61599 -2.24,-5.75599 -0.098,-0.15799 -0.359,-0.14499 -0.696,0.035 -0.68499,0.367 -0.69599,0.326 1.59,6.36099 2.442,6.44999 2.385,6.18499 1.398,6.52999 -0.749,0.26 -0.833,0.22 -1.334,-0.63 -0.56,-0.948 -1.257,-1.184 -1.515,-0.512 -0.083,0.217 0.295,1.497 0.84,2.844 1.439,3.55999 1.483,3.63999 2.016,3.63999 0.603,0 0.635,-0.721 0.09,-2.024 -0.544,-1.30299 -0.505,-1.54499 0.307,-1.91499 0.563,-0.256 0.768,-0.252 1.019,0.023 0.269,0.296 1.40399,3.15199 4.26199,10.72798 l 0.624,1.65099 -0.857,0.358 c -1.201,0.502 -1.644,1.14 -1.613,2.321 0.03,1.17 0.66,2.27199 1.499,2.62499 0.78,0.328 2.84999,0.045 3.42399,-0.47 m -3.22899,-1.24399 c -0.174,-0.21 -0.278,-0.657 -0.23,-0.992 0.12,-0.855 1.637,-1.023 2.06199,-0.229 0.622,1.162 -0.98999,2.23599 -1.83199,1.221 m -27.921955,1.26699 c 0.567,-0.567 0.922,-1.51999 0.922,-2.46999 0,-0.774 -0.837,-1.665 -1.873,-1.994 -0.28,-0.088 -0.50799,-0.331 -0.50799,-0.54 0,-0.803 6.06298,-15.59497 6.42198,-15.66997 0.206,-0.042 0.53,0.11 0.72,0.34 0.292,0.351 0.173,0.876 -0.752,3.329 -1.2,3.18299 -1.31499,3.88299 -0.675,4.12899 0.548,0.21 0.642,0.043 2.204,-3.88399 2.853985,-7.17799 4.297985,-11.39998 4.014985,-11.73998 -0.459,-0.553 -2.869985,-1.572 -3.314985,-1.4 -0.732,0.28 -0.449,0.942 0.642,1.499 0.582,0.297 1.057995,0.644 1.057995,0.772 0,0.27 -1.787995,4.95499 -2.151995,5.63999 -0.222,0.418 -0.345,0.386 -1.354,-0.345 -1.016,-0.736 -1.138,-0.766 -1.436,-0.358 -0.18,0.245 -1.35999,3.07899 -2.62199,6.29799 -1.69674,4.349302 -3.43615,8.681834 -5.21799,12.99697 -1.04,2.516 -1.064,2.68999 -0.46,3.29399 0.715,0.716 3.69999,0.787 4.38199,0.104 m -2.86999,-1.06099 c -0.287,-0.288 -0.201,-1.28 0.141,-1.623 0.446,-0.446 1.52099,-0.395 1.70399,0.08 0.084,0.219 0.078,0.695 -0.013,1.058 -0.128,0.51 -0.33699,0.661 -0.90999,0.661 -0.41,0 -0.825,-0.08 -0.922,-0.176 m 10.80398,-7.88999 c 0,-1.314 -0.081,-1.6 -0.476,-1.675 -0.816,-0.158 -1.244,0.459 -1.244,1.792 0,1.45 0.137,1.652 1.049,1.545 0.635,-0.074 0.67,-0.163 0.67,-1.662 m 2.459985,0.227 c 0.094,-1.611 -0.43,-2.39999 -1.288,-1.94 -0.405985,0.217 -0.509985,0.56 -0.509985,1.675 0,1.609 0.121995,1.808 1.047985,1.7 0.609,-0.07 0.679,-0.204 0.75,-1.435 m 2.038,-0.23 c 0,-1.536 -0.024,-1.59 -0.728,-1.672 l -0.727,-0.083 v 3.509 l 0.727,-0.083 c 0.704,-0.081 0.728,-0.136 0.728,-1.671 m 8.73099,0.926 v -0.662 l -3.37299,-0.074 -3.374,-0.074 v -0.936 c 0,-0.82 -0.074,-0.926 -0.595,-0.852 -0.51,0.072 -0.607,0.268 -0.677,1.373 -0.135,2.116 -0.29,2.042 4.11,1.96 l 3.90999,-0.074 z m -2.51299,-6.85699 c 0,-0.488 -3.858,-10.73198 -4.478,-11.89097 -0.74,-1.384 -1.006,-0.918 -4.233,7.42698 -0.885,2.287 -1.607985,4.34099 -1.607985,4.56499 0,0.35 0.697985,0.406 5.159985,0.406 4.906,0 5.159,-0.025 5.159,-0.507 m -2.903,-15.96397 c 0.648,-0.327 1.447,-0.99999 1.776,-1.49399 1.219,-1.834 0.463,-4.80499 -1.517,-5.96099 -1.283,-0.75 -3.668,-0.744 -4.685,0.01 -2.819985,2.08999 -2.52899,6.13599 0.542,7.52998 1.45,0.66 2.455,0.637 3.884,-0.084 z m -2.786,-1.51299 c -1.61,-0.64 -2.06,-2.822 -0.805,-3.902 1.04,-0.89399 2.304,-0.80999 3.163,0.21 0.388,0.462 0.685,1.143 0.685,1.573 0,1.42 -1.745,2.634 -3.043,2.119 m 113.74579,34.80293 c -4.50599,-1.02 -9.40198,-4.21799 -12.21898,-7.97999 -7.61698,-10.16998 -5.27899,-24.55995 5.11199,-31.45693 3.319,-2.204 6.51699,-3.245 10.70898,-3.488 8.83999,-0.512 17.07097,4.48599 20.91396,12.69698 1.964,4.19699 2.39,9.30198 1.175,14.08797 -1.919,7.56499 -6.91499,12.95398 -14.33897,15.46797 -2.349,0.795 -2.936,0.886 -6.16799,0.958 -2.357,0.052 -4.11999,-0.045 -5.18399,-0.286 m 9.26998,-2.263 c 4.15499,-1.06299 9.07598,-4.36999 11.28998,-7.58998 2.02,-2.934 3.47999,-6.88999 3.81799,-10.34498 0.53,-5.40999 -2.45799,-12.30998 -6.95498,-16.05997 -4.62999,-3.86399 -11.00398,-5.46699 -16.86897,-4.24299 -2.272,0.474 -6.09799,2.34499 -8.12399,3.97199 -2.75899,2.216 -5.46498,6.46899 -6.47998,10.18498 -0.672,2.46 -0.604,7.36299 0.142,10.12998 1.048,3.88999 3.60599,7.91498 6.52498,10.26398 1.787,1.438 5.08799,3.08899 7.37799,3.68999 2.61,0.683 6.59299,0.682 9.27398,-0.004 z m -6.53299,-1.09999 c -6.02998,-0.618 -11.44797,-4.426 -13.95997,-9.81299 -1.32,-2.83099 -1.70599,-4.74399 -1.69799,-8.40598 0.006,-2.86999 0.1,-3.58699 0.71499,-5.42399 4.342,-12.97997 20.23096,-16.60497 29.95795,-6.83399 1.94499,1.955 3.36299,4.305 4.28099,7.09899 0.586,1.78 0.697,2.599 0.703,5.15899 0.015,6.25999 -2.296,10.91198 -7.30499,14.70597 -3.72299,2.82 -7.97298,3.99599 -12.69398,3.512 m 7.53799,-1.345 c 2.24897,-0.837092 4.32109,-2.088366 6.10899,-3.68899 1.292,-1.166 1.343,-1.26 0.919,-1.696 -0.427,-0.44 -0.505,-0.413 -1.537,0.52 -1.702,1.53699 -3.74499,2.73499 -5.99699,3.51499 -1.77,0.614 -2.49399,0.717 -4.98199,0.713 -2.51999,-0.004 -3.17599,-0.103 -4.89399,-0.738 -3.62199,-1.34 -5.70699,-2.79599 -7.59298,-5.30599 -1.182,-1.572 -1.977,-2.95299 -2.296,-3.98799 -0.147,-0.476 -0.053,-0.543 0.76,-0.543 1.116,0 1.57,-0.388 1.332,-1.137 -0.233,-0.735 -0.812,-0.703 -1.603,0.088 -0.355,0.355 -0.694,0.563 -0.753,0.463 -0.059,-0.1 -0.247,-1.074 -0.415,-2.16499 -0.337,-2.19 -0.496,-2.485 -1.197,-2.216 -0.414,0.158 -0.457,0.41 -0.328,1.926 0.394,4.66199 3.519,9.79698 7.53499,12.37997 3.26599,2.102 5.69999,2.743 9.98198,2.626 2.60399,-0.07 3.49499,-0.206 4.95799,-0.753 m -7.20699,-2.042 c 0,-0.336 -0.43999,-0.58 -1.65399,-0.916 -0.91,-0.253 -2.463,-0.89499 -3.452,-1.42899 -1.51899,-0.82 -1.83599,-0.909 -2.04599,-0.577 -0.393,0.62 -0.324,0.741 0.85,1.48199 1.37999,0.871 2.49899,1.342 4.26299,1.795 1.548,0.398 2.03899,0.312 2.03899,-0.355 m 6.70199,-4.06899 c 2.448,-1.21 4.11199,-2.96399 5.44199,-5.73599 0.896,-1.868 0.951,-2.13199 0.928,-4.49799 -0.028,-2.99399 -0.621,-4.79299 -2.311,-7.01499 -2.45799,-3.22999 -5.80099,-4.78699 -9.82998,-4.57499 -1.78599,0.094 -2.52199,0.272 -3.88299,0.942 -4.25199,2.094 -6.57299,5.81799 -6.57299,10.54798 0,3.36499 1.237,6.14299 3.781,8.48798 2.32199,2.14 4.76299,3.007 8.16698,2.9 2.033,-0.063 2.51599,-0.182 4.27899,-1.054 m -18.49796,-7.21999 c 0.346,-0.132 0.418,-0.65999 0.418,-3.05999 v -2.89999 l -0.727,0.084 -0.728,0.084 -0.075,2.97699 c -0.078,3.11999 -0.026,3.25199 1.112,2.81599 m 30.78994,-3.80999 c 0.092,-2.99099 -0.631,-5.69999 -2.251,-8.43098 -1.382,-2.33 -4.55299,-5.25499 -7.01498,-6.47199 -2.134,-1.054 -2.715,-1.171 -2.938,-0.592 -0.182,0.475 0.163,0.76 2.105,1.735 5.19799,2.61299 8.56698,7.80398 8.68398,13.37797 0.054,2.574 0.215,3.107 0.9,2.976 0.365,-0.07 0.451,-0.506 0.515,-2.594 m -2.193,-0.448 c 0,-2.50599 -0.25,-3.20399 -1.04,-2.89999 -0.337,0.129 -0.416,0.631 -0.416,2.63699 0,1.362 0.085,2.562 0.188,2.665 0.103,0.103 0.43,0.153 0.728,0.11 0.499,-0.071 0.54,-0.262 0.54,-2.512 m -31.35394,-1.005 c -0.002,-0.218191 -0.17781,-0.394824 -0.396,-0.397 -0.21858,0.0016 -0.39537,0.178423 -0.397,0.397 0,0.219 0.178,0.397 0.397,0.397 0.21819,-0.0022 0.39437,-0.178809 0.396,-0.397 m 1.308,-3.04999 c 1.244,-4.03299 4.15599,-7.52599 7.89998,-9.47298 1.54,-0.802 2.105,-1.228 1.998,-1.507 -0.326,-0.849 -2.29899,-0.189 -5.07699,1.698 -2.78099,1.88899 -5.10199,5.10799 -6.26599,8.69098 -0.517,1.591 -0.382,2.261 0.432,2.138 0.425,-0.064 0.672,-0.44 1.013,-1.547 m 16.72797,-8.91498 c 0.743,-0.743 0.88,-1.972 0.298,-2.69 -0.69,-0.85 -2.635,-1.07 -3.438,-0.387 -0.93899,0.799 -0.90699,2.2 0.073,3.18 0.565,0.564 0.844,0.654 1.638,0.525 0.526,-0.085 1.17,-0.368 1.43,-0.628 m -2.33,-1 c -0.25,-0.65 0.11,-1.19 0.794,-1.19 0.737,0 1.115,0.69 0.67,1.224 -0.4,0.483 -1.273,0.463 -1.463,-0.033 m 38.65993,36.40193 c -3.048,-0.49 -6.42799,-1.812 -10.21998,-3.99899 -2.34,-1.35 -3.135,-2.034 -3.135,-2.7 0,-0.662 2.296,-6.01799 2.835,-6.61399 0.595,-0.65799 1.033,-0.58999 2.98599,0.467 4.47999,2.424 7.30999,3.3 10.65998,3.3 2.721,0 4.03899,-0.412 5.27499,-1.647 0.849,-0.85 0.998,-1.171 0.998,-2.15 0,-1.34599 -0.786,-2.68499 -1.985,-3.38299 -1.003,-0.585 -3.64999,-1.018 -6.23499,-1.02 -2.84999,-0.003 -4.85999,-0.43 -7.03998,-1.49799 -7.21699,-3.532 -9.19698,-13.25298 -3.89699,-19.12297 5.37799,-5.95599 15.62397,-6.69198 25.63995,-1.84199 1.48499,0.72 1.86599,1.02799 1.92599,1.55899 0.042,0.363 -0.502,2.09 -1.208,3.836 -1.48199,3.66899 -2.03299,4.22699 -3.55299,3.60399 -0.478,-0.197 -2.05999,-0.783 -3.51599,-1.304 -6.01999,-2.15199 -12.56698,-1.049 -12.56698,2.119 0,2.12599 1.783,3.10499 5.68799,3.12199 5.11199,0.022 9.40998,1.465 12.27998,4.12099 2.97199,2.753 4.25699,5.61799 4.25699,9.49999 0,7.75298 -6.24699,13.46397 -15.05697,13.76897 -1.542,0.053 -3.39999,0 -4.13199,-0.117 m 6.69798,-2.292 c 2.957,-0.606 5.18999,-1.75999 7.08499,-3.65999 3.44599,-3.45499 4.30299,-7.95498 2.345,-12.31798 -1.425,-3.17399 -6.82999,-6.92598 -7.20199,-4.99799 -0.055,0.284 0.413,0.707 1.39,1.259 3.03799,1.714 4.70999,3.92899 5.18199,6.86599 0.907,5.62899 -3.377,10.60798 -9.86998,11.46998 -2.29,0.305 -2.314,0.317 -2.314,1.05399 0,0.905 0.387,0.942 3.38399,0.327 m -8.52798,-0.93 c 0.28,-0.45099 -0.382,-0.90299 -2.46099,-1.68199 -1.817,-0.68 -2.631,-1.204 -1.87,-1.201 0.19,0 1.06,0.295 1.934,0.655 0.87399,0.36 1.92299,0.657 2.33399,0.66 0.618,0.005 0.731,-0.093 0.661,-0.573 -0.064,-0.439 -0.372,-0.654 -1.275,-0.888 -0.655,-0.17 -1.61899,-0.49 -2.14199,-0.713 -0.835,-0.355 -0.937,-0.498 -0.837,-1.177 0.103,-0.70299 -0.033,-0.86299 -1.5,-1.76999 -0.888,-0.547 -1.821,-0.957 -2.074,-0.91 -0.25299,0.047 -0.79999,0.768 -1.21799,1.603 -0.72,1.43999 -0.737,1.55399 -0.332,2.17199 0.495,0.755 7.00398,4.11399 7.97298,4.11399 0.345,0 0.708,-0.13 0.807,-0.29 m -6.96099,-4.11299 c -0.48199,-0.202 -0.405,-1.40499 0.102,-1.59999 0.628,-0.241 1.287,0.274 1.287,1.00499 0,0.635 -0.639,0.909 -1.389,0.595 m 15.57897,2.964 c 2.403,-0.51 4.108,-1.433 5.61099,-3.04 1.872,-2.00099 2.67,-3.90999 2.666,-6.36798 -0.003,-1.437 -0.154,-2.313 -0.55,-3.175 -0.792,-1.731 -2.497,-3.51699 -4.19399,-4.39399 -1.437,-0.743 -1.492,-0.751 -1.855,-0.264 -0.48,0.646 -0.404,0.745 1.297,1.706 5.98399,3.37699 4.70199,11.68397 -2.129,13.79397 -0.951,0.294 -2.12499,0.535 -2.60699,0.535 -1.28,0 -1.713,0.241 -1.713,0.954 0,0.539 0.128,0.632 0.86,0.629 0.472,-0.003 1.649,-0.172 2.61399,-0.377 m 1.908,-2.653 c 3.37799,-1.59799 5.11299,-5.26599 4.09599,-8.65898 -0.407,-1.36 -1.98999,-3.13299 -3.51399,-3.93699 -1.052,-0.555 -1.251,-0.588 -1.47,-0.245 -0.446,0.7 -0.284,1.036 0.756,1.56699 1.366,0.697 2.6,2.153 2.96199,3.497 0.545,2.02699 -0.46799,4.58599 -2.32399,5.86699 -1.065,0.73599 -3.61499,1.50499 -4.98999,1.50499 -0.847,0 -1.341,0.555 -0.994,1.117 0.316,0.51 3.86999,0.048 5.47799,-0.712 m -5.68699,-13.07497 c 0.196,-0.124 0.314,-0.45 0.262,-0.724 -0.082,-0.427 -0.429,-0.52 -2.47399,-0.66 -2.802,-0.193 -3.544,-0.364 -5.21399,-1.198 -2.785,-1.39199 -4.452,-3.99999 -4.648,-7.27198 -0.19099,-3.188 0.936,-5.63199 3.411,-7.39499 1.365,-0.971 1.172,-0.32 -0.296,1 -1.85,1.663 -2.637,3.35199 -2.64,5.66799 -0.008,5.28299 4.163,8.89798 9.97398,8.64498 1.72,-0.075 1.797,-0.107 1.797,-0.74 0,-0.652 -0.038,-0.664 -2.64499,-0.804 -2.003,-0.107 -2.911,-0.281 -3.735,-0.71499 -2.85799,-1.503 -3.92299,-3.17 -3.93199,-6.15399 -0.005,-1.695 0.1,-2.165 0.721,-3.222 0.769,-1.30799 1.869,-2.33399 2.49999,-2.33399 0.21,0 -0.19799,0.565 -0.90299,1.256 -3.215,3.14999 -2.294,7.98898 1.89999,9.97198 1.803,0.85399 2.591,0.88999 2.475,0.118 -0.0567,-0.374 -0.43767,-0.696 -1.143,-0.966 -2.57499,-0.986 -3.71299,-2.597 -3.51499,-4.97699 0.164,-1.978 1.11099,-3.315 2.97299,-4.19499 0.807,-0.382 1.468,-0.796 1.468,-0.92 0,-0.43 -0.693,-0.794 -1.24,-0.651 -0.856,0.224 -0.975,-0.355 -0.154,-0.748 0.831,-0.397 1.179,-1.535 0.469,-1.535 -0.238,0 -0.676,0.13 -0.973,0.289 -0.37,0.197 -0.626,0.203 -0.812,0.017 -0.185,-0.185 0.222,-0.423 1.286,-0.752 2.946,-0.90999 10.61798,-0.47499 12.53598,0.71 0.827,0.511 -0.023,0.522 -1.883,0.024 -1.074,-0.287 -2.63799,-0.603 -3.47399,-0.7 -1.494,-0.175 -1.522,-0.166 -1.522,0.482 0,0.626 0.132,0.685 2.46,1.104 3.15699,0.568 3.73599,0.855 3.74799,1.86 0.01,0.705 0.163,0.838 1.646,1.41999 0.89999,0.354 1.82999,0.569 2.06399,0.479 0.564,-0.217 1.536,-2.44499 1.567,-3.58999 0.024,-0.883 -0.03,-0.93 -1.989,-1.78 -2.73499,-1.18699 -4.59699,-1.64899 -8.08698,-2.00799 -3.596,-0.37 -6.77999,0.084 -9.49198,1.354 -2.168,1.01399 -4.396,3.19999 -5.35399,5.25299 -0.616,1.31999 -0.713,1.86799 -0.715,4.04499 -0.002,2.31299 0.068,2.66299 0.862,4.27599 1.10999,2.25499 3.41699,4.44799 5.50099,5.22699 2.42299,0.907 6.38798,1.368 7.21998,0.841 m 8.95898,-15.80597 c -0.319,-0.319 -0.207,-1.077 0.21,-1.422 0.53,-0.44 1.247,0.129 1.136,0.903 -0.078,0.547 -0.973,0.892 -1.346,0.519 m -3.52299,0.276 c 0.088,-0.23 0.16,-0.516 0.16,-0.635 0,-0.257 -2.93999,-0.799 -4.33999,-0.799 -0.872,0 -0.978,0.07 -0.904,0.593 0.075,0.52 0.323,0.627 2.07,0.886 2.81399,0.418 2.83599,0.418 3.01399,-0.045 m -140.28973,35.26393 c -0.194,-0.234 -0.343,-6.92699 -0.47,-21.12396 l -0.187,-20.78096 0.571,-0.571 c 0.538,-0.538 0.821,-0.572 4.77599,-0.572 3.61399,0 4.28299,0.065 4.76499,0.463 0.558,0.461 0.56,0.525 0.624,16.33797 l 0.064,15.87497 8.17998,0.07 c 5.49599,0.047 8.29499,0.166 8.53299,0.363 0.48,0.399 0.512,9.48798 0.035,9.96498 -0.48,0.48 -26.48995,0.456 -26.88995,-0.026 m 13.13297,-3.42599 0.08,-1.522 h -2.14399 v 1.411 c 0,1.65399 0.111,1.81499 1.181,1.70999 0.78199,-0.076 0.80599,-0.119 0.88299,-1.59999 m 2.91,1.33599 c 0.336,-0.336 0.427,-1.73699 0.157,-2.43999 -0.10667,-0.278667 -0.494,-0.418 -1.162,-0.418 -1.305,0 -1.68,0.88 -1.065,2.49699 0.193,0.507 0.447,0.678 1.005,0.678 0.411,0 0.89,-0.143 1.065,-0.317 m 3.17499,-1.33599 0.08,-1.522 h -2.40799 v 1.411 c 0,0.77599 0.085,1.49599 0.189,1.59999 0.104,0.104 0.60999,0.154 1.12399,0.11 l 0.936,-0.078 z m 2.91,1.33599 c 0.175,-0.175 0.318,-0.87599 0.318,-1.55999 0,-1.093 -0.076,-1.26 -0.643,-1.402 -0.354,-0.089 -0.965,-0.039 -1.358,0.11 -0.671,0.256 -0.705,0.346 -0.55,1.478 0.091,0.66299 0.233,1.31499 0.316,1.44899 0.216,0.35 1.544,0.298 1.918,-0.075 m 3.09599,-1.40299 v -1.587 h -2.11599 l -0.082,1.43 c -0.091,1.60699 0.153,1.92299 1.40499,1.81399 0.786,-0.068 0.793,-0.084 0.793,-1.65699 m -16.25097,-0.112 c 1.01,-1.01 1.062,-2.4 0.124,-3.34 -0.832,-0.83 -2.50699,-0.886 -3.58499,-0.119 -0.742,0.528 -1.505,0.483 -1.913,-0.113 -0.107,-0.157 -0.197,-2.03299 -0.199,-4.17099 l -0.004,-3.88699 0.992,-0.082 0.992,-0.082 0.133,-1.455 c 0.073,-0.8 0.095,-3.56899 0.049,-6.15199 l -0.083,-4.69599 h -3.70599 l 0.084,0.728 c 0.072,0.625 0.218,0.738 1.03799,0.807 l 0.954,0.08 0.169,2.16899 c 0.093,1.193 0.17,3.27 0.17,4.617 l 0.002,2.44699 h -2.11699 v 11.37598 h 1.16499 c 1.071,0 1.188,0.068 1.458,0.843 0.481,1.37899 1.03,1.80299 2.333,1.80299 0.93999,0 1.32199,-0.152 1.94399,-0.77399 m -2.65599,-0.933 c -0.68,-0.82 0.355,-1.982 1.40799,-1.578 0.566,0.217 0.578,1.586 0.015,1.801 -0.66399,0.255 -1.07999,0.19 -1.42299,-0.223 m 6.81698,-2.196 c -0.074,-1.158 -0.139,-1.263 -0.82399,-1.342 -1.037,-0.11899 -1.506,0.37 -1.506,1.573 v 1.026 h 2.41099 z m 3.227,0.353 c 0,-1.47 -0.21,-1.74199 -1.351,-1.74199 h -1.03 v 2.64599 h 1.19 c 1.179,0 1.19,-0.009 1.19,-0.904 m 2.85899,-0.353 -0.081,-1.257 h -2.11699 l -0.08,1.257 -0.081,1.257 h 2.43999 z m 3.182,0.503 c 0.0431,-0.425284 0.0178,-0.854731 -0.075,-1.272 -0.145,-0.579 -0.284,-0.63999 -1.279,-0.568 -1.053,0.076 -1.12,0.13 -1.2,0.966 -0.137,1.426 0.07,1.669 1.339,1.577 0.953,-0.069 1.14,-0.177 1.215,-0.703 m 2.90299,-0.503 -0.08,-1.257 h -2.117 l -0.081,1.257 -0.08,1.257 h 2.439 z m -17.47497,-18.53096 -0.07,-6.80199 h -5.82099 v 0.662 c 0,0.646 0.051,0.663 2.183,0.738 l 2.183,0.077 v 6.02199 c 0,6.31598 0.101,6.90398 1.10299,6.36798 0.464,-0.24899 0.489,-0.65999 0.422,-7.06498 m 0.062,-10.37298 v -0.794 h -3.04999 c -3.172,0 -3.59999,0.159 -3.204,1.19 0.123,0.321 0.735,0.397 3.203,0.397 h 3.05099 z m 0,-2.117 v -0.794 h -3.04999 c -3.172,0 -3.59999,0.16 -3.204,1.19 0.123,0.322 0.735,0.398 3.203,0.398 h 3.05099 z m -0.049,-2.18299 0.084,-0.728 h -3.06799 c -3.196,0 -3.61799,0.158 -3.218,1.2 0.13,0.337 0.656,0.39299 3.137,0.33 l 2.98199,-0.074 z m 37.14393,39.98792 c -1.86,-0.31 -5.72299,-1.777 -7.63998,-2.902 -2.443,-1.43399 -5.84099,-5.01199 -7.15199,-7.53198 -1.77,-3.40299 -2.51,-6.28999 -2.536,-9.90898 -0.024,-3.41199 0.301,-5.27799 1.442,-8.25699 2.029,-5.29499 6.44399,-9.83298 11.76198,-12.08697 6.18099,-2.62 13.12997,-2.33 19.17597,0.799 2.19399,1.13599 5.12999,3.42199 6.04498,4.70599 0.976,1.36999 0.692,1.99999 -1.95699,4.33699 -3.363,2.96599 -3.54699,2.99999 -5.83199,1.052 -5.27999,-4.50199 -14.64998,-3.668 -18.72097,1.66599 -1.71,2.24 -2.17999,3.779 -2.17999,7.12299 0,2.70699 0.056,3.02999 0.81899,4.62999 2.301,4.82999 7.30799,7.47199 12.69298,6.69599 2.32299,-0.335 5.08399,-1.608 6.09599,-2.81 0.877,-1.04299 1.748,-2.78399 1.552,-3.10099 -0.092,-0.15 -2.213,-0.256 -5.116,-0.256 -3.50399,0 -5.05199,-0.093 -5.27599,-0.317 -0.43999,-0.44 -0.43999,-6.59999 0,-7.03799 0.455,-0.45499 19.28197,-0.45499 19.73797,0 0.237,0.237 0.317,3.185 0.317,11.63198 0,10.91598 -0.018,11.32498 -0.512,11.58898 -0.66,0.353 -7.03898,0.358 -7.69598,0.006 -0.275,-0.147 -0.578,-0.683 -0.674,-1.19 -0.095,-0.508 -0.216,-0.923 -0.269,-0.923 -0.052,0 -0.973,0.348 -2.045,0.774 -3.71,1.474 -8.14999,1.958 -12.03398,1.312 m 7.81299,-2.24 c 2.454,-0.507 4.95299,-1.47899 6.02399,-2.34399 0.709,-0.573 0.751,-0.685 0.396,-1.048 -0.357,-0.365 -0.56,-0.33 -1.984,0.342 -3.326,1.57 -4.19299,1.748 -8.46599,1.748 -3.45299,0 -4.19699,-0.079 -5.72699,-0.607 -3.50999,-1.213 -6.64298,-3.537 -8.67998,-6.43799 -2.67399,-3.80699 -3.86399,-8.33998 -3.23899,-12.33798 0.176,-1.12599 0.39,-2.35799 0.474,-2.73799 0.172,-0.772 -0.5,-1.25 -1.082,-0.767 -0.904,0.75 -1.236,6.99699 -0.53,9.98798 0.52,2.21 1.715,4.78399 3.15699,6.80599 4.237,5.93699 12.20498,8.93598 19.65697,7.39598 m 1.26199,-2.34699 c 1.85,-0.584 4.154,-1.778 4.478,-2.32 0.195,-0.327 0.178,-0.551 -0.061,-0.79 -0.269,-0.269 -0.59,-0.19 -1.643,0.402 -2.26099,1.271 -4.19499,1.823 -7.00799,2 -2.45899,0.154 -2.65099,0.207 -2.72799,0.744 -0.07,0.497 0.06,0.59 0.926,0.662 1.51199,0.124 4.54099,-0.226 6.03598,-0.698 m -7.93798,-0.277 c 0,-0.417 -0.362,-0.645 -1.72,-1.083 -5.69699,-1.837 -9.67198,-6.00699 -10.96898,-11.50898 -0.46,-1.95499 -0.517,-5.13199 -0.122,-6.84798 0.235,-1.02 0.209,-1.23 -0.19,-1.523 -0.65999,-0.481 -0.84999,-0.168 -1.33599,2.19799 -0.757,3.685 0.199,8.43299 2.37699,11.80498 1.126,1.743 4.12499,4.63599 5.84499,5.63799 3.06499,1.785 6.11499,2.445 6.11499,1.322 m 1.588,-1.83 c 0,-0.405 -0.316,-0.571 -1.588,-0.837 -3.24599,-0.67699 -6.06199,-2.43599 -7.97599,-4.98099 -2.59999,-3.45999 -3.51499,-6.67798 -2.95999,-10.41198 0.242,-1.62999 0.23,-2.01299 -0.074,-2.20499 -0.202,-0.128 -0.486,-0.195 -0.631,-0.15 -0.491,0.151 -0.896,1.88099 -0.911,3.88899 -0.042,5.55599 3.23,11.12998 8.00499,13.63997 2.38999,1.256 3.73999,1.686 5.07699,1.617 0.846,-0.043 1.05799,-0.156 1.05799,-0.56 m 16.20998,0.153 c 0.26,-0.164 0.32,-1.65599 0.265,-6.54399 l -0.07,-6.33198 h -10.05499 l -0.084,0.728 -0.083,0.72799 h 8.76599 v 5.30899 c 0,5.86599 0.19,6.78999 1.262,6.11099 m 2.44199,-2.65499 c 0,-1.256 -0.079,-4.51799 -0.174,-7.24899 l -0.174,-4.96599 -6.10998,0.071 c -5.909,0.069 -6.109,0.089 -6.109,0.6 0,0.508 0.22,0.535 5.424,0.662 l 5.42399,0.132 0.069,6.48299 c 0.06,5.67998 0.123,6.52198 0.507,6.80798 0.83499,0.62 1.14399,-0.066 1.14299,-2.54099 m -26.39195,-23.34796 c 0.945,-1.003 0.93,-1.92499 -0.046,-2.90099 -0.986,-0.986 -2.07199,-1.016 -3.17499,-0.089 -1.382,1.16299 -0.96,3.27999 0.773,3.88399 0.71999,0.252 1.70999,-0.11 2.44799,-0.894 m -2.39499,-0.553 c -0.664,-0.664 -0.17,-1.79899 0.78499,-1.79899 0.257,0 0.593,0.236 0.747,0.523 0.222,0.41599 0.17,0.63399 -0.256,1.05899 -0.61799,0.619 -0.83699,0.656 -1.27599,0.217 m 25.14895,0.569 c 0.4,-0.434 0.728,-0.971 0.728,-1.194 0,-0.64699 -0.753,-1.92699 -1.309,-2.22399 -0.705,-0.378 -1.90499,-0.326 -2.47499,0.105 -0.417,0.317 -0.656,0.253 -1.924,-0.51 -2.067,-1.245 -4.70199,-1.85 -8.04999,-1.851 -3.45799,-10e-4 -4.29899,0.2 -4.18499,1 0.064,0.452 0.235,0.57 0.745,0.511 0.363,-0.042 1.911,-0.098 3.43999,-0.125 2.212,-0.04 3.154,0.068 4.62999,0.528 2.583,0.804 4.242,1.904 4.452,2.94899 0.204,1.022 1.584,1.964 2.55899,1.747 0.364,-0.081 0.989,-0.502 1.389,-0.936 m -2.58299,-1.056 c -0.228,-0.71899 0.155,-1.11799 0.96499,-1.00299 0.467,0.066 0.626,0.255 0.626,0.74999 0,0.91 -1.31599,1.12 -1.59099,0.253 m -3.849,-0.75299 c 0.223,-0.417 0.147,-0.547 -0.454,-0.782 -2.26699,-0.888 -3.87699,-1.143 -6.67599,-1.057 -3.01299,0.094 -3.81699,0.371 -3.20599,1.108 0.248,0.3 0.882,0.353 3.01799,0.257 2.16,-0.097 3.077,-0.017 4.556,0.4 2.37199,0.66699 2.44299,0.66999 2.76199,0.074 m 1.892,-3.365 c 0.476,-0.575 -0.135,-1.011 -2.402,-1.71399 -2.66599,-0.827 -5.46899,-1.095 -8.06698,-0.772 -2.71,0.337 -3.1,0.47 -2.993,1.022 0.071,0.36999 0.654,0.42799 4.44499,0.43999 4.05,0.014 4.496,0.065 6.215,0.712 2.22799,0.84 2.35199,0.853 2.80199,0.312"
       id="path9" />
  </g>
  <g
     id="g23"
     style="display:inline"
     transform="translate(75.436217,-42.366336)">
    <path
       style="fill:#000000;stroke-width:0.264582"
       d="m 2.4784422,85.506251 c -3.57499,-0.657 -7.26299,-2.32599 -10.29198,-4.655994 -3.2740002,-2.51999 -5.9119902,-6.54699 -7.2769942,-11.11198 -0.964,-3.22599 -1.022,-7.40398 -0.148,-10.70298 1.668004,-6.29198 5.6689942,-11.148971 11.5439842,-14.011971 3.67799999,-1.79299 5.59299,-2.23099 9.78998,-2.24399 2.801,-0.01 3.821,0.1 5.4999898,0.58399 4.025,1.162 7.29999,3.173 10.17198,6.244991 1.98,2.119 2.574,3.147 2.21,3.827 -0.357,0.66799 -5.87799,4.27699 -6.54199,4.27699 -0.299,0 -1.228,-0.6 -2.06599,-1.333 -7.6449898,-6.68999 -18.8549698,-3.60299 -20.9399598,5.76399 -0.355,1.599 -0.388,2.30399 -0.167,3.63599 0.94799,5.71799 5.95998999,9.92498 11.82797,9.92498 3.576,0 6.4269898,-1.269 9.1239898,-4.05999 0.79599,-0.823 1.66699,-1.496 1.93699,-1.496 0.945,0 7.06699,4.54899 7.06699,5.25099 0,0.748 -1.389,2.708 -2.97,4.19199 -2.70699,2.54 -6.28798,4.519004 -9.99398,5.518994 -1.7519898,0.473 -7.0569798,0.712 -8.7759798,0.396 m 6.39399,-2.14699 c 3.8399898,-0.622 9.5249798,-3.290004 9.5249798,-4.469994 0,-0.873 -0.78,-0.826 -2.197,0.13 -1.65399,1.11599 -4.72999,2.33699 -7.0129798,2.78399 -3.84499,0.752004 -9.11998001,-0.21 -12.74398,-2.322 -4.16499,-2.42899 -7.6079902,-7.35298 -8.5099802,-12.16997 -0.405,-2.167 -0.136,-6.18899 0.55999,-8.37899 0.472,-1.48399 0.514,-1.86399 0.227,-2.04599 -0.70499,-0.447 -0.94999,-0.2 -1.51699,1.526 -1.671004,5.08999 -1.218,9.83898 1.41599,14.85197 3.7670002,7.16898 12.24198019,11.392974 20.2529702,10.094984 m 2.3799898,-2.640004 c 2.765,-0.92 5.82199,-2.65199 5.82199,-3.29799 0,-0.181 -0.18,-0.479 -0.4,-0.662 -0.332,-0.275 -0.654,-0.163 -1.88399,0.653 -0.816,0.542 -2.273,1.298 -3.237,1.68 -1.5809898,0.62499 -2.1079898,0.69399 -5.3259898,0.70299 -3.24199,0.01 -3.76399,-0.058 -5.64299001,-0.72299 -4.80698999,-1.7 -8.29497999,-5.13699 -10.01597999,-9.86799 -0.8720002,-2.39999 -0.9770002,-6.40098 -0.232,-8.85498 0.446,-1.469 0.504,-1.96999 0.262,-2.26199 -0.575,-0.693 -0.9990002,-0.384 -1.5740002,1.14699 -1.30999,3.487 -0.89999,8.58499 0.9950002,12.36898 2.563,5.11999 6.92099,8.40998 12.78798,9.65198 1.916,0.406 6.48499,0.116 8.4449798,-0.536 M -5.2875378,56.103307 c 0.98099,-1.29 1.16299,-1.684 0.91299,-1.984 -0.493,-0.595 -0.92199,-0.447 -1.736,0.6 -1.31199,1.686 -1.43399,2.007 -0.96299,2.53 0.23,0.255 0.44999,0.463 0.48999,0.463 0.04,0 0.62301,-0.724 1.29701,-1.609 m -1.874,-0.882 c 2.40199,-3.48699 6.04799,-5.905991 10.01498,-6.643991 0.897,-0.16599 0.992,-0.13 0.992,0.387 0,0.852001 1.152,1.870001 2.11699,1.870001 1.147,0 2.117,-1.026 2.117,-2.238001 0,-1.20499 -0.766,-1.99599 -1.931,-1.99599 -1.21999,0 -5.45599001,0.953 -7.07698001,1.592 -2.80099999,1.10399 -5.73599999,3.496991 -7.51398999,6.124981 l -0.954,1.41 0.565,0.464 c 0.31,0.255 0.592,0.463 0.624,0.463 0.032,0 0.503,-0.645 1.046,-1.433 m 12.66097,-5.885991 c -0.46399,-0.187 -0.41399,-1.32399 0.066,-1.50799 0.64,-0.245 1.19,0.105 1.19,0.75699 0,0.466 -0.57,1.051001 -0.88,0.905001 -0.12478,-0.05267 -0.25012,-0.104009 -0.376,-0.154001 m -14.54497,4.830991 c 0.405,-0.64 1.619,-2.00199 2.69799,-3.02699 2.601,-2.471001 5.26,-3.771991 9.35699,-4.578991 l 2.99999,-0.59 3.01,0.554 c 3.0119898,0.555 6.2979898,1.803 7.1099798,2.69999 0.357,0.395001 0.318,0.513001 -0.38699,1.179001 -0.431,0.407 -0.784,0.974 -0.784,1.26 0,1.461 1.68799,2.93299 3.06199,2.66999 0.925,-0.176 2.23,-1.47499 2.228,-2.21699 -0.004,-2.34 -4.78299,-5.627991 -9.99198,-6.875991 -6.0499898,-1.448 -12.9519798,0.458 -17.6949698,4.886991 -2.416,2.256 -3.9170002,4.34399 -3.4910002,4.85699 0.523,0.63 1.1390002,0.362 1.8840002,-0.818 m 26.0539498,-1.50199 c -0.576,-0.336 -0.598,-1.124 -0.044,-1.585 0.825,-0.684 1.859,0.643 1.158,1.487 -0.373,0.449 -0.493,0.46 -1.114,0.098 m 11.70798,32.564934 c -0.52,-0.52 -0.529,-0.88199 -0.529,-21.289964 0,-20.253961 0.012,-20.766951 0.512,-21.033951 0.334,-0.179 5.33499,-0.274 14.40997,-0.274 13.46998,0 13.90698,0.016 14.17297,0.512 0.155,0.28999 0.274,2.28699 0.274,4.59799 0,3.475991 -0.065,4.139991 -0.437,4.448991 -0.34599,0.287 -2.41299,0.39 -9.85598,0.495 l -9.41898,0.132 v 2.96499 c 0,1.855 0.112,3.07499 0.3,3.26299 0.21,0.21 2.515,0.29 7.71099,0.268 6.47998,-0.028 7.46498,0.022 7.83598,0.393 0.402,0.402 0.597,3.144 0.524,7.37299 -0.03,1.74 -0.062,1.746 -8.46798,1.746 -5.69099,0 -7.52499,0.079 -7.68499,0.32999 -0.327,0.515 -0.087,6.38299 0.27,6.61099 0.169,0.107 4.36499,0.196 9.32698,0.198 8.39999,0.004 9.05099,0.038 9.45898,0.488 0.368,0.407 0.438,1.14 0.438,4.57799 0,2.830004 -0.098,4.190994 -0.318,4.409994 -0.23899,0.24 -3.74499,0.318 -14.15497,0.318 -13.48497,0 -13.85097,-0.013 -14.36697,-0.53 m 26.67495,-2.31499 0.085,-0.595 h -5.42699 c -5.44499,0 -5.94999,0.084 -5.61999,0.944 0.126,0.329 0.988,0.378 5.51399,0.318 5.33599,-0.071 5.36399,-0.075 5.44799,-0.667 m -20.56996,-0.31 c 0.558,-0.557004 0.774,-1.030004 0.774,-1.690004 0,-1.125 0.392,-1.266 2.92399,-1.054 1.71,0.143 1.815,0.19 1.891,0.842 l 0.08,0.69 3.48599,0.074 c 3.34199,0.07 3.49199,0.051 3.66199,-0.483 0.097,-0.306 0.096,-0.637 -0.001,-0.735 -0.098,-0.098 -1.45199,-0.218 -3.00899,-0.266 -2.812,-0.088 -2.833,-0.093 -3.27299,-0.85999 l -0.443,-0.772 h -4.475 c -4.04999,0 -4.53699,0.05 -5.13699,0.52 -0.84599,0.66599 -1.09799,1.89999 -0.61999,3.04099 0.452,1.084004 1.03999,1.447004 2.35599,1.458004 0.773,0.006 1.196,-0.175 1.786,-0.766 m -2.66,-1.206004 c -0.268,-0.322 -0.28,-0.568 -0.05,-1.072 0.537,-1.17899 2.037,-0.595 1.851,0.721 -0.106,0.75 -1.28,0.98 -1.802,0.351 m 23.22496,-0.564 c 0.066,-0.462 -0.094,-0.587 -0.926,-0.725 -3.04499,-0.503 -5.15499,-0.047 -4.74399,1.025 0.13,0.34 0.619,0.397 2.87399,0.334 2.535,-0.07 2.722,-0.113 2.796,-0.634 m 0.005,-2.02099 c -0.084,-0.593 -0.107,-0.596 -5.57399,-0.667 -5.19499,-0.068 -5.48999,-0.045 -5.48999,0.419 0,0.27 0.08,0.57 0.176,0.667 0.097,0.097 2.60599,0.17599 5.57499,0.17599 h 5.39799 z m -23.36796,-5.75499 v -2.249 l 1.72,-0.132 c 1.5,-0.115 1.72,-0.2 1.72,-0.662 0,-0.454 -0.225,-0.55 -1.587,-0.675 -0.874,-0.08 -1.945,-0.076 -2.382,0.01 l -0.79299,0.157 -0.077,2.617 c -0.088,3.03999 -0.004,3.38199 0.80299,3.26799 0.565,-0.08 0.596,-0.202 0.596,-2.33399 m 19.64397,-7.22699 c 0.65299,-0.653 0.74999,-2.84299 0.159,-3.57399 -0.751,-0.928 -2.54,-1.086 -3.578,-0.318 -0.794,0.587 -0.91,0.595 -6.79598,0.484 -5.59199,-0.106 -6.04999,-0.151 -6.91499,-0.691 -0.51,-0.318 -1.318,-0.579 -1.798,-0.58 -2.01799,-0.002 -2.90799,2.522 -1.48599,4.21299 1.24299,1.477 3.62999,0.966 4.35199,-0.931 l 0.242,-0.636 h 5.69499 c 4.80399,0 5.69498,0.06 5.69498,0.384 0,0.69 0.577,1.672 1.155,1.967 0.755,0.385 2.767,0.19 3.275,-0.318 m -19.40397,-1.638 c -0.35,-0.53399 -0.37,-0.73999 -0.106,-1.05799 0.737,-0.889 2.275,-0.142 1.908,0.92699 -0.332,0.965 -1.214,1.03 -1.802,0.131 m 16.74997,0.499 c -0.37,-0.37 -0.18,-1.40999 0.304,-1.66799 0.696,-0.373 1.436,0.219 1.319,1.05299 -0.066,0.465 -0.28,0.669 -0.763,0.725 -0.37,0.043 -0.756,-0.006 -0.86,-0.11 m -3.21599,0.825 c 0.509,-0.392 0.509,-0.4 0,-0.793 -0.394,-0.305 -1.292,-0.397 -3.88,-0.397 -1.85299,0 -3.55599,0.072 -3.78599,0.16 -0.422,0.162 -0.57,0.924 -0.243,1.251 0.097,0.097 1.801,0.176 3.78599,0.176 2.804,0 3.724,-0.088 4.123,-0.397 m -10.51998,-7.32798 c 0.44,-0.44 0.425,-4.72699 -0.017,-5.33299 -0.282,-0.385 -0.698,-0.446 -2.58,-0.38 -2.04199,0.07 -2.24399,0.125 -2.24399,0.606 0,0.46999 0.202,0.53799 1.78599,0.60699 l 1.786,0.079 v 2.215 c 0,2.08 0.104,2.401 0.807,2.502 0.08,0.012 0.288,-0.122 0.463,-0.296 m 12.22497,-8.67899 c 0,-0.777001 -0.029,-0.794001 -1.33199,-0.794001 -1.373,0 -1.806,0.349 -1.483,1.191001 0.107,0.28 0.544,0.397 1.483,0.397 1.30299,0 1.33199,-0.017 1.33199,-0.794 m 7.88999,0.066 c 0.082,-0.584001 0.033,-0.595001 -2.647,-0.599001 -1.50099,-0.002 -2.86999,-0.093 -3.03999,-0.202 -0.172,-0.109 -0.35,-0.67199 -0.398,-1.25299 l -0.086,-1.055 -6.68799,-0.07 -6.68898,-0.07 -0.72,-0.8 c -1.369,-1.518 -3.73,-1.29 -4.44999,0.432 -1.14,2.72999 1.94999,4.749991 4.21999,2.75699 l 0.904,-0.79299 h 6.08798 c 5.16799,0 6.11099,0.06 6.23999,0.397 0.0839,0.257666 0.0839,0.535325 0,0.79299 -0.083,0.219 -0.082,0.580001 0.003,0.802001 0.131,0.34 0.714,0.393 3.667,0.33 3.41399,-0.071 3.51299,-0.09 3.59499,-0.669 m -23.24196,-1.927991 c -0.344,-0.643 -0.133,-1.468 0.432,-1.684 0.622,-0.239 1.426,0.32 1.426,0.99 0,1.198 -1.323,1.69299 -1.858,0.694 m 23.24596,-0.09 c 0.138,-0.721 -0.405,-0.95 -2.272,-0.954 -2.29799,-0.006 -2.08099,-0.493 0.262,-0.588 1.575,-0.064 1.93,-0.16 2.003,-0.54 0.136,-0.713 -0.998,-0.993 -4.00199,-0.989 -2.886,0.004 -3.463,0.17 -3.314,0.954 0.069,0.362 0.364,0.52 1.084,0.58 0.964,0.08 0.99,0.11 0.99,1.134 v 1.051 l 2.57699,-0.075 c 2.278,-0.067 2.588,-0.134 2.672,-0.573 M -59.372441,85.171251 c -0.737999,-0.388 -1.233998,-1.55799 -6.886987,-16.213974 -4.431991,-11.49197 -7.922985,-20.784951 -8.732983,-23.243951 -1.019998,-3.09499 -0.641999,-3.34699 5.03399,-3.34699 2.605995,0 3.475993,0.089 3.770993,0.384 0.389999,0.39 5.539989,13.205971 8.883983,22.105951 0.71093,1.897988 1.426263,3.794323 2.145995,5.68899 l 0.308,0.793 0.344999,-0.661 c 0.19,-0.364 2.207996,-5.36499 4.484991,-11.11298 5.549992,-14.009971 6.541992,-16.402961 6.970992,-16.831961 0.27999,-0.28 1.32999,-0.366 4.44799,-0.366 3.77199,0 4.12299,0.042 4.62799,0.547 0.703,0.70299 0.631,1.01799 -1.465,6.41698 l -4.23199,10.894981 c -2.075,5.33899 -7.001988,17.46397 -9.354983,23.018964 -0.959999,2.26499 -0.571999,2.10799 -5.38499,2.18999 -3.122994,0.054 -4.496991,-0.019 -4.96299,-0.264 m 6.764986,-2.34499 c 1.135998,-0.702004 2.059996,-2.610004 1.837997,-3.793994 -0.23,-1.228 -1.168998,-2.517 -2.269996,-3.119 -1.869996,-1.022 -4.479991,-0.178 -5.390989,1.744 -1.817997,3.82999 2.206995,7.403984 5.822988,5.168994 m -3.851992,-1.998004 c -0.709999,-0.903 -0.694999,-1.75499 0.046,-2.58599 0.917998,-1.027 1.811996,-1.117 2.802994,-0.284 1.630997,1.37299 0.854999,3.56699 -1.261997,3.56699 -0.806999,0 -1.160998,-0.156 -1.586997,-0.697 m -0.109,-6.33099 c 0.208,-0.54299 -1.984996,-6.12898 -2.480995,-6.31898 -0.21,-0.08 -1.074998,-0.147 -1.919996,-0.147 h -1.535997 l -1.306998,-2.977 c -1.276997,-2.90599 -1.975996,-3.71299 -2.357995,-2.71999 -0.175,0.458 2.075996,6.04599 2.742994,6.80998 0.272,0.311 0.891999,0.475 2.001997,0.529 l 1.608996,0.078 0.618999,1.587 c 1.223998,3.14199 1.461997,3.57199 1.972996,3.57199 0.274,0 0.568999,-0.186 0.655999,-0.413 m 5.45599,-2.28899 1.034998,-2.569 2.136995,-0.076 2.137996,-0.077 1.374,-3.30699 c 0.92555,-2.240406 1.829921,-4.489503 2.71299,-6.74699 2.334,-5.99998 3.71,-9.47698 4.39899,-11.111971 0.84,-1.996 0.846,-2.637 0.032,-3.452 -0.49599,-0.496 -0.92999,-0.65 -1.82999,-0.65 -1.556,0 -1.962,0.18 -2.426,1.078 -0.627,1.213 -0.494,2.425 0.355,3.23899 0.409,0.39 0.944,0.71 1.191,0.71 0.247,0 0.449,0.131 0.449,0.291001 0,0.16 -0.84,2.385 -1.868,4.94499 -1.045944,2.607331 -2.071638,5.22274 -3.07699,7.84599 -1.461,3.85499 -2.361998,5.69699 -2.798997,5.72499 -0.662725,0.0077 -1.325539,0.0013 -1.987996,-0.019 l -1.661997,-0.039 -0.753998,1.67199 c -1.702997,3.774 -1.985996,5.40599 -0.899999,5.19699 0.289,-0.055 0.813999,-0.99699 1.480998,-2.65499 m 11.199979,-24.626951 c -0.295882,-0.227445 -0.443926,-0.598323 -0.386,-0.967 0.117,-0.793 1.061,-1.162 1.719,-0.673 0.448,0.334 0.455,0.425 0.092,1.086 -0.486,0.883 -0.805,1.007 -1.425,0.554 m -22.836957,14.180971 c -0.029,-0.274 -0.651999,-1.783 -1.384997,-3.35099 -1.222998,-2.62 -1.379998,-2.837 -1.929996,-2.668 -0.33,0.101 -0.644999,0.224 -0.699999,0.273 -0.055,0.049 0.381999,1.195 0.969998,2.547 0.505187,1.156857 1.001534,2.317554 1.488997,3.48199 0.403999,0.987 0.439999,1.01 1.013998,0.62 0.328,-0.222 0.571999,-0.628 0.541999,-0.903 m 1.354998,-0.24 c 0.229999,-0.089 0.411999,-0.297 0.404999,-0.464 -0.008,-0.166 -0.815999,-2.207 -1.796997,-4.53499 l -1.781996,-4.23399 -2.083996,-0.132 -2.083996,-0.132 -0.333,-0.926 c -0.501999,-1.395 -0.445999,-1.777001 0.285,-1.960001 1.612997,-0.405 1.946996,-3.10899 0.533999,-4.32399 -1.009998,-0.869 -2.835995,-0.828 -3.746993,0.084 -0.855998,0.856 -0.802998,1.14 1.013998,5.405991 l 1.408997,3.30699 2.069996,0.133 2.071996,0.132 0.737999,1.852 c 0.934998,2.346 2.609995,5.95299 2.763995,5.95299 0.065,0 0.305999,-0.072 0.535999,-0.16 M -70.44942,47.605326 c -0.174,-0.174 -0.316999,-0.658 -0.316999,-1.075 0,-0.695 0.07,-0.75 0.859998,-0.675 0.665999,0.065 0.879998,0.22 0.945998,0.693 0.153,1.078 -0.794998,1.75 -1.488997,1.057 m 26.669952,11.231971 c 2.34499,-5.99798 2.36599,-6.06198 2.04799,-6.37998 -0.719,-0.718 -1.20399,-0.311 -1.92999,1.61699 -0.525841,1.388506 -1.062524,2.772882 -1.61,4.153 -0.988999,2.48499 -1.024999,2.68299 -0.571,3.13699 0.65,0.65 0.977,0.248 2.062,-2.527 m -1.49,-2.20599 c 1.498,-3.91199 1.645,-4.73999 0.844,-4.73999 -0.503,0 -0.843,0.676 -2.378998,4.72999 -1.259997,3.32699 -1.339997,4.00199 -0.476999,4.00199 0.379999,0 0.812999,-0.86 2.012997,-3.99199 m 15.65997,28.273944 c -0.364,-0.51999 -0.411,-2.966994 -0.411,-21.146954 0,-18.337971 0.045,-20.604961 0.415,-20.975961 0.343,-0.343 1.147996,-0.416 4.589986,-0.416 3.70699,0 4.22199,0.055 4.60999,0.484 0.4,0.44199 0.439,2.29099 0.439,21.147951 0,18.432974 -0.045,20.708964 -0.416,21.079964 -0.343,0.343 -1.15,0.416 -4.61499,0.416 -4.039986,0 -4.214986,-0.023 -4.610986,-0.588 m 6.429986,-2.08399 c 0.49,-0.17 0.893,-0.525 0.975,-0.860004 0.078,-0.313 0.10699,-2.295 0.065,-4.40499 -0.074,-3.73199 -0.092,-3.83899 -0.662,-3.91999 -0.745,-0.106 -1.003,0.77999 -0.76,2.61099 0.143,1.076 0.101,1.309 -0.233,1.309 -0.35,0 -0.406,-0.684 -0.406,-5.01999 v -5.01999 l 0.778,-0.403 c 1.339,-0.692 1.604,-1.339 1.604,-3.91399 v -2.332 l -1.183,-0.718 -1.182,-0.717 -0.008,-3.47999 -0.009,-3.47899 0.918,0.026 c 0.505,0.014 1,-0.056 1.1,-0.156 0.2,-0.2 0.143,-6.644991 -0.065,-7.184991 -0.386,-1.007 -3.816,-1.311 -4.89999,-0.434 -0.6,0.485 -0.624,0.646 -0.624,4.00499 0,3.067001 0.058,3.536001 0.47,3.794001 0.68199,0.427 0.97599,-0.182 0.97999,-2.036 0.003,-0.957 0.105,-1.475001 0.27,-1.374001 0.161,0.1 0.264,2.158001 0.264,5.289991 0,4.74699 -0.036,5.13699 -0.487,5.27999 -0.268,0.085 -0.77399,0.46 -1.12499,0.834 -0.569,0.606 -0.637,0.915 -0.633,2.888 0.003,1.96399 0.074,2.28499 0.637,2.88399 0.348,0.371 0.85299,0.744 1.11999,0.83 0.452,0.143 0.488,0.533 0.488,5.29499 0,3.09499 -0.1,5.14199 -0.253,5.14199 -0.14,0 -0.288,-0.863 -0.33,-1.918 -0.072,-1.74999 -0.13,-1.92599 -0.66499,-2.00199 -0.822,-0.117 -0.952,0.62499 -0.824,4.70499 0.088,2.82999 0.188,3.50399 0.587,3.944994 0.69599,0.769 2.67999,1.028 4.09299,0.535 m -2.93,-1.978004 c -0.458,-1.005 0,-1.567 1.277,-1.567 0.932,0 1.037,0.07 1.115,0.743 0.11,0.968 -0.359,1.506 -1.314,1.506 -0.568,0 -0.848,-0.178 -1.078,-0.682 m 0.225,-15.47697 c -0.586,-0.461 -0.697,-0.758 -0.697,-1.86399 0,-1.046 0.134,-1.45 0.654,-1.97 0.608,-0.607 0.713,-0.628 1.521,-0.3 0.84,0.342 0.87,0.409 0.948,2.054 0.07,1.47999 0.006,1.76099 -0.492,2.16499 -0.74,0.599 -1.083,0.584 -1.934,-0.085 m 1.684,-15.08397 c 0,-1.379001 0.626,-1.287001 0.744,0.109 0.063,0.739 -0.017,0.971 -0.33,0.971 -0.307,0 -0.414,-0.278 -0.414,-1.08 m -1.745,-3.291991 c -0.118,-0.47 -0.041,-0.834 0.234,-1.108 0.274,-0.275 0.638,-0.352 1.108,-0.233 0.6,0.15 0.689,0.296 0.618,1.026 -0.072,0.744 -0.19,0.861 -0.933,0.933 -0.73,0.07 -0.876,-0.017 -1.027,-0.618"
       id="path21" />
  </g>
</svg>
